<?xml version="1.0" encoding="UTF-8"?>
<svg width="160px" height="27px" viewBox="0 0 870 144" version="1.1" xmlns="http://www.w3.org/2000/svg" xmlns:xlink="http://www.w3.org/1999/xlink">
    <!-- Generator: Sketch 61 (89581) - https://sketch.com -->
    <title>Group 9 Copy</title>
    <desc>Created with Sketch.</desc>
    <g id="Page-1" stroke="none" stroke-width="1" fill="#0be3c3" fill-rule="evenodd">
        <g id="shineforth---homepage-copy-5" transform="translate(-570.000000, -6439.000000)" stroke="#FFFFFF" stroke-width="5">
            <g id="footer" transform="translate(1.000000, 6288.000000)">
                <g id="Group-9-Copy" transform="translate(572.000000, 154.000000)">
                    <path d="M54.3370735,35.0710635 C54.3370735,25.176291 62.6834294,18.2340367 76.7103075,18.2340367 C89.4958433,18.2340367 98.1968685,24.3095748 98.1968685,35.2444067 C98.1968685,41.1466016 96.4206151,44.6163079 96.4206151,44.6163079 C105.830979,46.0058955 114,41.6666313 114,29.1688686 C114,14.4148022 99.7957872,4 78.1318917,4 C53.8021625,4 36.2256847,17.5406638 36.2256847,36.4578094 C36.2256847,69.4384901 83.4577447,62.4933941 83.4577447,93.0415863 C83.4577447,109.878613 67.4772785,123.245934 45.2813791,123.245934 C27.3444178,123.245934 17.7567195,114.740749 17.7567195,102.589672 C17.7567195,89.3985367 26.4577447,81.4162231 40.4846228,81.4162231 C49.0083134,81.4162231 52.5608201,84.8859294 52.5608201,84.8859294 C52.5608201,84.8859294 53.8021625,82.8029689 53.8021625,80.1999788 C53.8021625,72.5615099 47.9443056,68.0489026 37.8216963,68.0489026 C15.093793,68.0489026 0,83.8430283 0,103.632573 C0,124.459336 14.9164584,138 43.5051257,138 C75.6462998,138 101.92671,118.383798 101.92671,91.1348107 C101.92671,54.164394 54.3370735,59.3703743 54.3370735,35.0710635 Z" id="Stroke-1"></path>
                    <path d="M232.603376,24 C241.162838,24 246,17.5375315 246,10.7093199 C246,4.24382872 241.720269,0 235.207767,0 C228.323645,0 222,4.8 222,13.8468514 C222,19.9375315 226.462495,24 232.603376,24 Z" id="Stroke-3"></path>
                    <path d="M371.164723,61.2312307 C376.735417,61.2312307 378.647405,64.5148506 378.647405,68.8401707 C378.647405,81.1141155 363.855858,91.8340023 345.405605,97.3680341 C346.625174,79.3873843 358.809465,61.2312307 371.164723,61.2312307 Z M130.450895,78.1758418 C137.067341,54.3158139 152.383188,21.9806498 164.915113,21.9806498 C168.568121,21.9806498 170.309141,23.8828848 170.309141,27.3420085 C170.309141,47.7429127 146.291043,56.2180489 130.450895,78.1758418 Z M536.860819,43.2477502 C544.517318,43.2477502 552,37.0258566 552,28.3808779 C552,16.6221218 542.952965,8.84050868 525.19798,8.84050868 C498.395959,8.84050868 479.771889,25.4397735 454.881857,25.4397735 C443.917135,25.4397735 437.824989,21.2899573 437.824989,11.7816131 C437.824989,6.93827369 439.566009,4 439.566009,4 L437.303538,4 C431.037576,4 425.295914,6.59292746 423.381077,13.1658287 C422.335325,14.3745405 421.640057,16.1041024 421.640057,18.5243568 C421.640057,31.1464785 431.559027,39.9641303 451.225999,39.9641303 C462.364538,39.9641303 471.941573,37.3712028 480.988609,33.9120791 C479.076621,64.5148506 462.016904,122.784951 431.732844,122.784951 C421.46624,122.784951 414.678826,116.557396 414.678826,104.110778 C414.678826,87.3388398 426.512633,74.1986987 442.002298,74.1986987 C450.356914,74.1986987 453.317503,76.9642993 453.317503,76.9642993 C453.317503,76.9642993 454.012771,75.5800837 454.012771,73.5051755 C454.012771,66.7652626 449.311162,61.9219232 439.218375,61.9219232 C414.667428,61.9219232 399.032441,81.9095441 397.431045,101.936795 C388.896912,110.912966 374.974451,120.882716 359.852367,120.882716 C352.540653,120.882716 346.798991,117.768938 345.756089,109.12396 C368.728435,103.589928 395.009004,90.2771135 395.009004,65.8990663 C395.009004,54.1431408 387.004871,47.3975664 373.951495,47.3975664 C347.146625,47.3975664 328.699222,77.1369724 328.699222,103.420085 C328.699222,104.136254 328.733415,104.835439 328.75906,105.540285 C323.296645,113.551185 316.267028,120.016519 309.724668,120.016519 C305.721176,120.016519 303.458705,117.944442 303.458705,113.446449 C303.458705,100.478981 323.302344,80.7687693 323.302344,63.3061388 C323.302344,53.4496176 317.73165,46.706874 307.636014,46.706874 C285.70657,46.706874 269.521637,73.6778487 269.34782,74.0260256 C269.34782,73.8505218 271.957926,66.5925895 271.957926,61.2312307 C271.957926,52.7589252 267.954434,49.4724745 262.036106,49.4724745 C259.252184,49.4724745 255.943961,50.6840171 255.943961,50.6840171 C255.943961,69.6044615 248.87445,85.8045967 244.34096,100.651654 C238.453975,110.652541 229.389843,119.671173 221.134958,119.671173 C216.783833,119.671173 214.695178,117.768938 214.695178,112.92843 C214.695178,100.133635 230.35866,78.1758418 230.35866,60.3650344 C230.35866,52.2409058 225.6599,48.609109 219.567755,48.609109 C216.783833,48.609109 213.127975,49.6451477 213.127975,49.6451477 C212.89147,69.1147493 205.200778,84.556255 200.33675,98.5031476 C194.677722,109.392877 185.488214,120.016519 177.096554,120.016519 C173.093063,120.016519 170.830592,117.944442 170.830592,113.446449 C170.830592,100.478981 189.802296,83.707043 189.802296,66.2444125 C189.802296,57.0814145 184.405419,51.3747095 175.358384,50.511344 C178.663757,46.706874 186.320256,37.1985297 186.320256,23.5375386 C186.320256,13.6838481 179.535692,6.59292746 168.394304,6.59292746 C127.84079,6.59292746 108,96.5018378 108,120.882716 C108,129.355021 112.351125,132.983987 117.745153,132.983987 C120.184291,132.983987 122.099128,131.947949 122.099128,131.947949 C122.620579,103.420085 149.074965,66.0717394 167.003767,66.0717394 C170.135324,66.0717394 171.702527,67.6286282 171.702527,71.2575943 C171.702527,82.325658 153.078456,101.342347 153.078456,118.459631 C153.078456,128.834171 159.170602,135.407073 171.178226,135.407073 C181.239669,135.407073 190.392134,129.822088 197.042774,122.765136 C199.008901,130.985508 205.625347,135.407073 215.738081,135.407073 C225.3949,135.407073 234.213979,130.416536 240.878866,123.928556 C241.958811,130.226879 246.441012,132.983987 251.592835,132.983987 C253.855306,132.983987 255.943961,131.947949 255.943961,131.947949 C256.468261,103.420085 282.74883,63.8241582 299.805698,63.8241582 C303.111071,63.8241582 304.504457,65.3810469 304.504457,69.0128438 C304.504457,80.0780768 285.70657,101.342347 285.70657,118.459631 C285.70657,128.834171 291.798715,135.407073 303.806339,135.407073 C315.064556,135.407073 325.177289,128.412396 331.92766,120.192023 C336.002387,129.105919 344.140445,134.886222 357.589896,134.886222 C374.005635,134.886222 389.412665,126.70831 398.912764,117.474545 C402.984642,131.31387 414.433773,138 429.64419,138 C451.7503,138 467.761415,121.746081 478.55232,102.208543 L482.208177,102.208543 C511.101701,102.208543 532.680662,92.0095061 532.680662,78.6938612 C532.680662,75.4074105 531.113459,73.5051755 529.899589,72.9871562 C522.066423,79.2118805 509.708315,87.3388398 485.513551,88.0295323 C493.69435,68.1466475 497.524025,47.3975664 497.524025,38.7525878 C497.524025,33.9120791 495.783005,30.8011323 493.346716,29.0715704 C502.225634,25.6124467 511.449335,22.8468461 521.892606,22.8468461 C531.637759,22.8468461 536.684153,27.1693354 536.684153,35.1236216 C536.684153,40.3094765 534.772165,43.0750771 534.772165,43.0750771 C535.467433,43.2477502 536.162702,43.2477502 536.860819,43.2477502 Z" id="Stroke-5"></path>
                    <path d="M789.331906,78.353316 C795.961168,53.9031776 811.322769,20.7682943 823.889793,20.7682943 C827.553032,20.7682943 829.298928,22.7175757 829.298928,26.2622511 C829.298928,47.1706149 805.213561,55.852459 789.331906,78.353316 Z M569.066095,122.470312 C559.990863,122.470312 555.10464,115.560805 555.10464,103.688173 C555.10464,79.0610908 572.034975,57.8017404 588.439542,57.8017404 C589.136758,57.8017404 589.836831,57.9786841 590.536904,57.9786841 C588.268096,60.812684 587.045111,65.0651343 587.045111,69.6714719 C587.045111,78.1763723 591.234119,85.4397662 597.691935,89.1613853 C594.200142,107.412693 581.633119,122.470312 569.066095,122.470312 Z M861.588007,94.4783985 C856.353176,107.058805 845.706352,121.228805 836.105352,121.228805 C832.093505,121.228805 829.824697,119.105481 829.824697,114.496242 C829.824697,101.20806 848.84668,84.0213159 848.84668,66.1267965 C848.84668,56.7371775 843.437545,50.8893333 834.362313,50.0046148 C837.676944,46.1060519 845.354887,36.3625456 845.354887,22.3636883 C845.354887,12.2662946 838.551321,5 827.378728,5 C794.366716,5 775.041845,65.7148947 768.935495,101.93324 C760.720353,111.224234 747.076074,121.582692 732.783156,121.582692 C725.802428,121.582692 720.741901,117.68703 720.741901,108.648398 C720.741901,95.3602162 727.371163,82.2518789 734.87766,68.9636971 C759.488796,68.0760779 772.230124,59.3942337 772.230124,48.4092208 C772.230124,45.5752208 770.658532,43.6259394 769.784155,43.0951083 C766.643827,46.1060519 758.791581,52.1308399 743.781445,54.257065 C750.762172,42.0334461 757.219988,32.1100954 757.219988,24.3129697 C757.219988,20.2374632 754.774019,17.9342944 750.236403,17.9342944 C739.941045,17.9342944 729.468525,33.7025887 720.741901,55.1446842 C713.761174,54.6109524 707.477662,52.4847273 707.477662,52.4847273 C707.477662,52.4847273 706.603285,53.7262339 706.603285,56.0294027 C706.603285,60.5284138 709.955063,64.3428559 715.809958,66.3327473 C711.535227,68.9230871 704.703087,71.9746407 696.82798,71.9746407 C691.241684,71.9746407 688.798572,71.0899222 688.798572,71.0899222 C693.861957,67.0144157 697.873804,60.1020085 697.873804,51.2432207 C697.873804,43.9798268 694.559172,39.0196018 687.052676,39.0196018 C678.151748,39.0196018 669.425125,47.5245023 669.425125,61.5204588 C669.425125,65.242078 670.12234,68.2559223 670.470948,69.4945282 C663.315917,74.1008658 655.986581,78.7072034 650.400285,84.378104 C650.400285,84.378104 655.289366,73.5700347 655.289366,62.2282336 C655.289366,52.8386147 651.623269,48.9400519 645.688365,48.9400519 C642.896646,48.9400519 639.230549,50.1815585 639.230549,50.1815585 C639.230549,58.399288 637.936129,66.1035907 636.121654,73.4278996 C630.563932,77.065398 623.211737,79.4903969 614.619413,79.7717664 C614.619413,79.2380345 614.968021,76.9348657 614.968021,73.5700347 C614.968021,62.4051773 609.384582,53.7262339 599.437831,53.7262339 C598.214847,48.7631082 593.674373,45.0443898 585.822126,45.0443898 C560.516632,45.0443898 538,73.9239221 538,104.221905 C538,125.6611 548.995432,136.820156 566.448679,136.820156 C589.488223,136.820156 606.592862,115.383861 612.527767,92.3492726 C620.41716,91.9402716 627.17215,89.8981673 632.184101,87.0293588 C628.14368,99.5981629 623.871806,111.085 623.871806,122.116424 C623.871806,130.975212 628.760887,134.342944 634.867238,134.342944 C637.136045,134.342944 639.404853,133.455325 639.404853,133.455325 C642.370877,100.500286 656.860958,91.2876104 676.580156,79.4149782 C680.246252,83.1365974 686.704068,85.2628225 692.98758,85.2628225 C700.154041,85.2628225 706.163239,83.7834571 710.820867,81.5179976 C707.294785,92.1868325 704.683085,102.565596 704.683085,111.131411 C704.683085,126.368874 712.712493,136.646113 728.942756,136.646113 C743.758585,136.646113 757.445726,129.939656 766.820989,121.81475 C766.820989,121.910473 766.815274,122.023601 766.815274,122.116424 C766.815274,130.798268 771.178586,134.516987 776.590578,134.516987 C779.03369,134.516987 780.951033,133.455325 780.951033,133.455325 C781.476802,104.221905 808.005281,65.9498528 825.984297,65.9498528 C829.124624,65.9498528 830.696217,67.5452468 830.696217,71.2668659 C830.696217,82.6057663 812.019985,102.09568 812.019985,119.633411 C812.019985,130.264537 818.129193,137 830.173305,137 C850.418272,137 867,113.965411 867,101.918736 C867,97.3094976 864.554031,94.8322859 861.588007,94.4783985 Z" id="Stroke-7"></path>
                </g>
            </g>
        </g>
    </g>
</svg>